<svg xmlns="http://www.w3.org/2000/svg" viewBox="0 0 64 64" width="48" height="48"><path d="M32 10c-12.15 0-22 9.85-22 22s9.85 22 22 22 22-9.85 22-22-9.85-22-22-22zm1.53 8.787a.675.675 0 01.269.006l5.392 1.076a2.177 2.177 0 011.663-1.076 2.2 2.2 0 11-1.953 2.424l-4.708-.99-1.427 6.863a15.647 15.647 0 018.47 2.707 3.225 3.225 0 012.106-.893A3.219 3.219 0 0146.672 32a3.211 3.211 0 01-1.777 2.926c.022.322.022.646 0 .969 0 4.933-5.743 8.935-12.825 8.935-7.082 0-12.824-4.008-12.824-8.935a7.118 7.118 0 010-.97 3.095 3.095 0 01-.863-.58 3.208 3.208 0 01-.143-4.538 3.208 3.208 0 014.54-.143 15.758 15.758 0 018.58-2.707l1.624-7.633v-.012a.682.682 0 01.545-.525zM26.872 32a2.2 2.2 0 100 4.402 2.2 2.2 0 000-4.402zm10.19 0a2.202 2.202 0 10.001 4.404A2.202 2.202 0 0037.062 32zm-10.024 7.28a.593.593 0 00-.459.972 8.45 8.45 0 005.438 1.695 8.445 8.445 0 005.435-1.695v.088a.618.618 0 00.012-.87.62.62 0 00-.871-.011 7.247 7.247 0 01-4.6 1.34 7.188 7.188 0 01-4.576-1.385.603.603 0 00-.379-.135z"/></svg>