<svg xmlns="http://www.w3.org/2000/svg" width="16" height="16" viewBox="0 0 12 12"><defs><clipPath id="prefix__a"><path d="M0 0h80.398v80.398H0zm0 0"/></clipPath></defs><g clip-path="url(#prefix__a)" fill="none" stroke-width="40.201" transform="scale(.14925)" stroke="#000" stroke-linejoin="round" stroke-linecap="round"><path d="M73.7 40.2c0-18.5-14.997-33.5-33.5-33.5a33.506 33.506 0 00-23.688 9.812" stroke-width="4.0201"/><path d="M73.7 40.2c0-6.169-5-11.169-11.169-11.169-6.164 0-11.164 5-11.164 11.168 0 6.168 5 11.168 11.164 11.168 6.168 0 11.168-5 11.168-11.168zm0 0M6.7 40.2c0 18.503 15 33.5 33.5 33.5a33.482 33.482 0 0023.687-9.813" stroke-width="4.0201"/><path d="M6.7 40.2c0 6.167 5 11.167 11.167 11.167 6.168 0 11.164-5 11.164-11.168 0-6.168-4.996-11.168-11.164-11.168-6.168 0-11.168 5-11.168 11.168zm0 0" stroke-width="4.0201"/></g></svg>