<svg xmlns="http://www.w3.org/2000/svg" width="16" height="16" viewBox="0 0 12 12"><defs><clipPath id="prefix__a"><path d="M0 0h80.398v80.398H0zm0 0"/></clipPath></defs><g clip-path="url(#prefix__a)" transform="translate(-.15) scale(.14925)" stroke="#000" stroke-width="4.02" stroke-linejoin="round" stroke-linecap="round"><path d="M6.7 29.031h11.167L29.031 73.7 40.2 29.031h22.332c6.168 0 11.168-4.996 11.168-11.164A11.165 11.165 0 0062.531 6.7c-6.164 0-11.164 5-11.164 11.168 0 1.961.516 3.887 1.496 5.582l19.34 33.5c.98 1.7 1.496 3.625 1.496 5.582 0 6.168-5 11.168-11.168 11.168-6.164 0-11.164-5-11.164-11.168" fill="none" stroke-width="4.0201"/></g></svg>